<?xml version="1.0" encoding="UTF-8" standalone="no"?>
<svg
   width="185.50937"
   height="31.835938"
   viewBox="0 0 185.50936 31.835938"
   role="img"
   aria-label="OnlineOptica.com logo"
   version="1.1"
   id="svg3"
   xmlns="http://www.w3.org/2000/svg"
   xmlns:svg="http://www.w3.org/2000/svg">
  <defs
     id="defs3" />
  <g
     id="g3"
     transform="translate(-1.609375,-2.6953125)">
    <path
       style="font-weight:600;font-size:32px;font-family:Inter;-inkscape-font-specification:'Inter Semi-Bold';letter-spacing:-0.6;fill:#22d3ee;fill-opacity:1"
       d="m 177.93124,27.902344 q -1.65625,0 -2.98437,-0.59375 -1.32813,-0.609375 -2.09375,-1.78125 -0.76563,-1.171875 -0.76563,-2.890625 0,-1.96875 0.95313,-3.046875 0.96875,-1.09375 2.48437,-1.578125 1.53125,-0.5 3.21875,-0.671875 2.28125,-0.25 3.29688,-0.453125 1.01562,-0.21875 1.01562,-1.125 v -0.07813 q 0,-1.28125 -0.78125,-1.984375 -0.78125,-0.71875 -2.26562,-0.71875 -1.53125,0 -2.4375,0.671875 -0.90625,0.671875 -1.21875,1.53125 l -3.76563,-0.765625 q 0.76563,-2.3125 2.76563,-3.4375 2.01562,-1.1250002 4.64062,-1.1250002 1.23438,0 2.48438,0.2968752 1.26562,0.28125 2.3125,0.96875 1.04687,0.671875 1.6875,1.84375 0.64062,1.15625 0.64062,2.90625 v 11.671875 h -3.89062 v -2.40625 h -0.15625 q -0.57813,1.125 -1.84375,1.953125 -1.26563,0.8125 -3.29688,0.8125 z m 1.04688,-3.015625 q 1.875,0 2.98437,-1.078125 1.125,-1.078125 1.125,-2.53125 v -2.0625 q -0.28125,0.21875 -1,0.390625 -0.71875,0.15625 -1.53125,0.28125 -0.79687,0.109375 -1.32812,0.1875 -1.375,0.1875 -2.29688,0.75 -0.90625,0.5625 -0.90625,1.765625 0,1.125 0.82813,1.71875 0.82812,0.578125 2.125,0.578125 z"
       id="path13" />
    <path
       style="font-weight:600;font-size:32px;font-family:Inter;-inkscape-font-specification:'Inter Semi-Bold';letter-spacing:-0.6;fill:#22d3ee;fill-opacity:1"
       d="m 162.28125,27.902344 q -2.54688,0 -4.42188,-1.125 -1.875,-1.140625 -2.90625,-3.15625 -1.01562,-2.03125 -1.01562,-4.71875 0,-2.71875 1.01562,-4.75 1.03125,-2.046875 2.90625,-3.171875 1.875,-1.1250002 4.42188,-1.1250002 2.92187,0 4.9375,1.4687502 2.03125,1.453125 2.59375,4.015625 l -3.79688,0.796875 q -0.32812,-1.359375 -1.28125,-2.171875 -0.95312,-0.8125 -2.42187,-0.8125 -2.125,0 -3.1875,1.640625 -1.04688,1.640625 -1.04688,4.09375 0,1.609375 0.46875,2.90625 0.46875,1.296875 1.40625,2.0625 0.9375,0.75 2.35938,0.75 1.5,0 2.45312,-0.84375 0.96875,-0.859375 1.29688,-2.265625 l 3.79687,0.796875 q -0.5625,2.609375 -2.59375,4.109375 -2.03125,1.5 -4.98437,1.5 z"
       id="path12" />
    <path
       style="font-weight:600;font-size:32px;font-family:Inter;-inkscape-font-specification:'Inter Semi-Bold';letter-spacing:-0.6;fill:#22d3ee;fill-opacity:1"
       d="m 148.95938,7.6054687 q -0.96875,0 -1.67187,-0.640625 -0.6875,-0.65625 -0.6875,-1.59375 0,-0.921875 0.6875,-1.5624999 0.70312,-0.65625 1.67187,-0.65625 0.98438,0 1.67188,0.65625 0.70312,0.6406249 0.70312,1.5624999 0,0.9375 -0.70312,1.59375 -0.6875,0.640625 -1.67188,0.640625 z"
       id="path11" />
    <path
       style="font-weight:600;font-size:32px;font-family:Inter;-inkscape-font-specification:'Inter Semi-Bold';letter-spacing:-0.6;fill:#22d3ee;fill-opacity:1"
       d="m 146.92813,27.542969 v -17.46875 h 4.0625 v 17.46875 z"
       id="path10" />
    <path
       style="font-weight:600;font-size:32px;font-family:Inter;-inkscape-font-specification:'Inter Semi-Bold';letter-spacing:-0.6;fill:#22d3ee;fill-opacity:1"
       d="m 144.30937,10.074219 v 3.1875 h -3.375 v 9.359375 q 0,0.953125 0.39063,1.40625 0.40625,0.4375 1.34375,0.4375 0.28125,0 0.73437,-0.0625 0.45313,-0.07813 0.75,-0.140625 l 0.64063,3.140625 q -0.67188,0.203125 -1.375,0.28125 -0.70313,0.09375 -1.34375,0.09375 -2.51563,0 -3.85938,-1.25 -1.34375,-1.25 -1.34375,-3.5625 v -9.703125 h -2.48437 v -3.1875 h 2.48437 V 5.9179687 h 4.0625 v 4.1562503 z"
       id="path9" />
    <path
       style="font-weight:600;font-size:32px;font-family:Inter;-inkscape-font-specification:'Inter Semi-Bold';letter-spacing:-0.6;fill:#22d3ee;fill-opacity:1"
       d="m 116.8625,34.074219 v -24 h 3.96875 v 2.890625 h 0.26563 q 0.29687,-0.609375 0.875,-1.328125 0.57812,-0.734375 1.57812,-1.25 1,-0.5312502 2.54688,-0.5312502 2.01562,0 3.64062,1.0312502 1.64063,1.03125 2.59375,3.046875 0.96875,2 0.96875,4.90625 0,2.875 -0.95312,4.890625 -0.9375,2.015625 -2.5625,3.078125 -1.625,1.046875 -3.70313,1.046875 -1.5,0 -2.5,-0.5 -0.98437,-0.515625 -1.57812,-1.234375 -0.59375,-0.71875 -0.90625,-1.34375 H 120.925 v 9.296875 z m 8.125,-9.5625 q 2.03125,0 3.07813,-1.609375 1.0625,-1.625 1.0625,-4.078125 0,-2.4375 -1.04688,-4.03125 -1.03125,-1.59375 -3.09375,-1.59375 -2.01562,0 -3.07812,1.546875 -1.0625,1.53125 -1.0625,4.078125 0,2.546875 1.07812,4.125 1.07813,1.5625 3.0625,1.5625 z"
       id="path8" />
    <path
       style="font-weight:600;font-size:32px;font-family:Inter;-inkscape-font-specification:'Inter Semi-Bold';letter-spacing:-0.6;fill:#22d3ee;fill-opacity:1"
       d="m 105.55625,27.902344 q -2.54687,0 -4.42187,-1.125 -1.875003,-1.140625 -2.906253,-3.15625 -1.015625,-2.03125 -1.015625,-4.71875 0,-2.71875 1.015625,-4.75 1.03125,-2.046875 2.906253,-3.171875 1.875,-1.1250002 4.42187,-1.1250002 2.54688,0 4.42188,1.1250002 1.875,1.125 2.90625,3.171875 1.03125,2.03125 1.03125,4.75 0,2.6875 -1.03125,4.71875 -1.03125,2.015625 -2.90625,3.15625 -1.875,1.125 -4.42188,1.125 z m 0,-3.296875 q 1.42188,0 2.35938,-0.765625 0.9375,-0.765625 1.40625,-2.0625 0.46875,-1.296875 0.46875,-2.890625 0,-1.609375 -0.46875,-2.90625 -0.46875,-1.296875 -1.40625,-2.0625 -0.9375,-0.765625 -2.35938,-0.765625 -1.40625,0 -2.34375,0.765625 -0.9375,0.765625 -1.40625,2.0625 -0.45312,1.296875 -0.45312,2.90625 0,1.59375 0.45312,2.890625 0.46875,1.296875 1.40625,2.0625 0.9375,0.765625 2.34375,0.765625 z"
       id="path7" />
    <path
       style="font-weight:600;font-size:32px;font-family:Inter;-inkscape-font-specification:'Inter Semi-Bold';letter-spacing:-0.6;fill:#22d3ee;opacity:0.92;fill-opacity:1"
       d="m 87.375,27.902344 q -2.640625,0 -4.546875,-1.109375 -1.890625,-1.109375 -2.921875,-3.125 -1.015625,-2.015625 -1.015625,-4.75 0,-2.6875 1,-4.71875 1.015625,-2.046875 2.859375,-3.1875 1.859375,-1.1562502 4.359375,-1.1562502 2.125,0 3.9375,0.9375002 1.828125,0.921875 2.9375,2.875 1.109375,1.9375 1.109375,5 v 1.28125 H 82.9375 q 0.07813,2.328125 1.296875,3.546875 1.234375,1.21875 3.1875,1.21875 1.34375,0 2.296875,-0.578125 0.96875,-0.578125 1.375,-1.6875 l 3.734375,0.765625 q -0.625,2.109375 -2.59375,3.40625 -1.953125,1.28125 -4.859375,1.28125 z m -4.421875,-10.71875 h 8.1875 q -0.1875,-1.875 -1.203125,-3 -1,-1.140625 -2.8125,-1.140625 -1.859375,0 -2.953125,1.203125 -1.078125,1.1875 -1.21875,2.9375 z"
       id="path6" />
    <path
       style="font-weight:600;font-size:32px;font-family:Inter;-inkscape-font-specification:'Inter Semi-Bold';letter-spacing:-0.6;fill:#22d3ee;opacity:0.92;fill-opacity:1"
       d="m 64.740623,17.308594 v 10.234375 h -4.0625 v -17.46875 h 3.84375 l 0.04687,3.484375 q 1.5625,-3.7031252 5.40625,-3.7031252 2.703125,0 4.328125,1.7187502 1.640625,1.71875 1.640625,4.859375 v 11.109375 h -4.0625 V 17.058594 q 0,-1.75 -0.90625,-2.75 -0.90625,-1 -2.5,-1 -1.625,0 -2.6875,1.046875 -1.046875,1.046875 -1.046875,2.953125 z"
       id="path5" />
    <path
       style="font-weight:600;font-size:32px;font-family:Inter;-inkscape-font-specification:'Inter Semi-Bold';letter-spacing:-0.6;fill:#22d3ee;opacity:0.92;fill-opacity:1"
       d="m 54.934376,7.6054687 q -0.96875,0 -1.671875,-0.640625 -0.6875,-0.65625 -0.6875,-1.59375 0,-0.921875 0.6875,-1.5624999 0.703125,-0.65625 1.671875,-0.65625 0.984375,0 1.671875,0.65625 0.703125,0.6406249 0.703125,1.5624999 0,0.9375 -0.703125,1.59375 -0.6875,0.640625 -1.671875,0.640625 z"
       id="path4" />
    <path
       style="font-weight:600;font-size:32px;font-family:Inter;-inkscape-font-specification:'Inter Semi-Bold';letter-spacing:-0.6;fill:#22d3ee;opacity:0.92;fill-opacity:1"
       d="m 52.903126,27.542969 v -17.46875 h 4.0625 v 17.46875 z"
       id="path3" />
    <path
       style="font-weight:600;font-size:32px;font-family:Inter;-inkscape-font-specification:'Inter Semi-Bold';letter-spacing:-0.6;fill:#22d3ee;opacity:0.92;fill-opacity:1"
       d="M 49.190624,4.2617187 V 27.542969 h -4.0625 V 4.2617187 Z"
       id="path2" />
    <path
       style="font-weight:600;font-size:32px;font-family:Inter;-inkscape-font-specification:'Inter Semi-Bold';letter-spacing:-0.6;fill:#22d3ee;opacity:0.92;fill-opacity:1"
       d="M 30.2125,17.308594 V 27.542969 H 26.15 v -17.46875 h 3.84375 l 0.04687,3.484375 q 1.5625,-3.7031252 5.40625,-3.7031252 2.703125,0 4.328125,1.7187502 1.640625,1.71875 1.640625,4.859375 v 11.109375 h -4.0625 V 17.058594 q 0,-1.75 -0.90625,-2.75 -0.90625,-1 -2.5,-1 -1.625,0 -2.6875,1.046875 -1.04687,1.046875 -1.04687,2.953125 z"
       id="path1" />
    <path
       style="font-weight:600;font-size:32px;font-family:Inter;-inkscape-font-specification:'Inter Semi-Bold';letter-spacing:-0.6;fill:#22d3ee;opacity:0.92;fill-opacity:1"
       d="m 12.3125,27.855469 q -3.0625,0 -5.484375,-1.421875 -2.40625,-1.421875 -3.8125,-4.09375 -1.40625,-2.671875 -1.40625,-6.421875 0,-3.765625 1.40625,-6.4375002 1.40625,-2.6875001 3.8125,-4.1093751 Q 9.25,3.9492188 12.3125,3.9492188 q 3.046875,0 5.453125,1.4218749 2.421875,1.421875 3.8125,4.1093751 1.40625,2.6718752 1.40625,6.4375002 0,3.765625 -1.40625,6.4375 -1.390625,2.65625 -3.8125,4.078125 -2.40625,1.421875 -5.453125,1.421875 z m 0,-3.734375 q 2.84375,0 4.65625,-2.109375 1.8125,-2.109375 1.8125,-6.09375 0,-4 -1.8125,-6.1093752 -1.8125,-2.1250001 -4.65625,-2.1250001 -2.859375,0 -4.6875,2.1250001 -1.828125,2.1093752 -1.828125,6.1093752 0,3.96875 1.828125,6.09375 1.828125,2.109375 4.6875,2.109375 z"
       id="text3-6" />
  </g>
</svg>
